<svg xmlns="http://www.w3.org/2000/svg" viewBox="0 0 1280 720">
  <defs><linearGradient id="b" x2="1" y2="1"><stop stop-color="#051b20"/><stop offset="1" stop-color="#0e4136"/></linearGradient></defs><rect width="1280" height="720" rx="36" fill="url(#b)"/><text x="60" y="70" fill="#effffb" font-family="Arial" font-size="34" font-weight="700">CODE FOR ALL EVENTS API</text><text x="1090" y="67" fill="#60f1b7" font-family="Consolas" font-size="18">200 OK</text>
  <rect x="60" y="120" width="1160" height="540" rx="18" fill="#071719" stroke="#4bcfa1" stroke-opacity=".4"/><g font-family="Consolas,monospace" font-size="21"><text x="95" y="174" fill="#739b91">GET /api/events</text><text x="95" y="235" fill="#d7fff2">{</text><text x="130" y="282" fill="#78d8ff">"events"</text><text x="242" y="282" fill="#d7fff2">: [</text><text x="165" y="330" fill="#d7fff2">{</text><text x="200" y="376" fill="#78d8ff">"title"</text><text x="310" y="376" fill="#d7fff2">:</text><text x="336" y="376" fill="#73efaf">"Reverse Engineering Workshop"</text><text x="200" y="422" fill="#78d8ff">"campus"</text><text x="322" y="422" fill="#d7fff2">:</text><text x="348" y="422" fill="#73efaf">"Queens College"</text><text x="200" y="468" fill="#78d8ff">"cached"</text><text x="322" y="468" fill="#d7fff2">:</text><text x="348" y="468" fill="#ffd47b">true</text><text x="165" y="514" fill="#d7fff2">}</text><text x="130" y="560" fill="#d7fff2">]</text><text x="95" y="606" fill="#d7fff2">}</text><path d="M820 245h285M820 305h235M820 365h265M820 425h180" stroke="#4bd7a7" stroke-width="8" stroke-linecap="round" opacity=".45"/><text x="820" y="520" fill="#739b91" font-size="18">Chromedp · GoQuery</text><text x="820" y="558" fill="#739b91" font-size="18">refresh · normalize · cache</text></g>
</svg>
