<svg xmlns="http://www.w3.org/2000/svg" viewBox="0 0 1280 720">
  <defs><linearGradient id="bg" x2="1" y2="1"><stop stop-color="#07111F"/><stop offset="1" stop-color="#102D4B"/></linearGradient><linearGradient id="line" x1="0" x2="1"><stop stop-color="#32D6FF"/><stop offset="1" stop-color="#57FFB1"/></linearGradient><filter id="glow"><feGaussianBlur stdDeviation="7" result="b"/><feMerge><feMergeNode in="b"/><feMergeNode in="SourceGraphic"/></feMerge></filter></defs>
  <rect width="1280" height="720" rx="36" fill="url(#bg)"/><path d="M0 96h1280" stroke="#6885A0" stroke-opacity=".22"/><circle cx="54" cy="48" r="9" fill="#FF6A6A"/><circle cx="84" cy="48" r="9" fill="#FFD66A"/><circle cx="114" cy="48" r="9" fill="#55E59B"/><text x="166" y="58" fill="#DDEAF5" font-family="Arial" font-size="27" font-weight="700">SIGNAL ROOM</text><text x="1110" y="58" fill="#55E59B" font-family="Arial" font-size="18">LIVE</text>
  <g fill="#0C1B2D" stroke="#6B89A6" stroke-opacity=".24"><rect x="48" y="138" width="254" height="120" rx="16"/><rect x="326" y="138" width="254" height="120" rx="16"/><rect x="604" y="138" width="254" height="120" rx="16"/><rect x="882" y="138" width="350" height="120" rx="16"/><rect x="48" y="286" width="810" height="378" rx="16"/><rect x="882" y="286" width="350" height="378" rx="16"/></g>
  <g font-family="Arial"><text x="76" y="177" fill="#718AA0" font-size="17">ACTIVE USERS</text><text x="76" y="226" fill="#E9F7FF" font-size="42" font-weight="700">18,429</text><text x="354" y="177" fill="#718AA0" font-size="17">EVENT RATE</text><text x="354" y="226" fill="#E9F7FF" font-size="42" font-weight="700">2.7K/s</text><text x="632" y="177" fill="#718AA0" font-size="17">LATENCY</text><text x="632" y="226" fill="#E9F7FF" font-size="42" font-weight="700">42 ms</text><text x="910" y="177" fill="#718AA0" font-size="17">SYSTEM HEALTH</text><text x="910" y="226" fill="#55E59B" font-size="30" font-weight="700">NOMINAL</text><text x="76" y="330" fill="#9FB7CA" font-size="18">TRAFFIC / 24 HOURS</text><text x="910" y="330" fill="#9FB7CA" font-size="18">EVENT STREAM</text></g>
  <g stroke="#7E9BB4" stroke-opacity=".13"><path d="M80 386h746M80 454h746M80 522h746M80 590h746"/><path d="M160 354v270M280 354v270M400 354v270M520 354v270M640 354v270M760 354v270"/></g>
  <path d="M80 555C150 548 173 481 232 496s73 79 142 39 84-151 153-121 75 125 145 102 90-108 154-86" fill="none" stroke="url(#line)" stroke-width="7" stroke-linecap="round" filter="url(#glow)"/>
  <g font-family="Arial" font-size="17"><rect x="910" y="368" width="294" height="64" rx="10" fill="#132A40"/><circle cx="936" cy="400" r="7" fill="#55E59B"/><text x="958" y="406" fill="#DCEAF5">Deployment completed</text><rect x="910" y="450" width="294" height="64" rx="10" fill="#132A40"/><circle cx="936" cy="482" r="7" fill="#32D6FF"/><text x="958" y="488" fill="#DCEAF5">Traffic threshold passed</text><rect x="910" y="532" width="294" height="64" rx="10" fill="#132A40"/><circle cx="936" cy="564" r="7" fill="#FFD66A"/><text x="958" y="570" fill="#DCEAF5">Queue depth normalized</text></g>
</svg>
