<svg xmlns="http://www.w3.org/2000/svg" viewBox="0 0 1280 720">
  <defs><linearGradient id="bg" x2="1" y2="1"><stop stop-color="#171124"/><stop offset="1" stop-color="#31224B"/></linearGradient><linearGradient id="art" x1="0" y1="0" x2="1" y2="1"><stop stop-color="#FF8EBD"/><stop offset=".52" stop-color="#8D72FF"/><stop offset="1" stop-color="#57D8FF"/></linearGradient></defs>
  <rect width="1280" height="720" rx="36" fill="url(#bg)"/><rect y="0" width="1280" height="84" fill="#110C1C"/><text x="46" y="54" fill="#F5EEFF" font-family="Arial" font-size="27" font-weight="700">POCKET FORGE</text><rect x="1090" y="24" width="142" height="38" rx="19" fill="#8D72FF"/><text x="1128" y="50" fill="white" font-family="Arial" font-size="16" font-weight="700">EXPORT</text>
  <rect x="0" y="84" width="232" height="636" fill="#120D1D"/><text x="30" y="132" fill="#9D8CB4" font-family="Arial" font-size="16">LAYERS</text>
  <g font-family="Arial" font-size="17"><rect x="22" y="158" width="188" height="58" rx="10" fill="#2B203D"/><circle cx="50" cy="187" r="10" fill="#FF8EBD"/><text x="74" y="193" fill="#EEE5F9">Gradient field</text><rect x="22" y="228" width="188" height="58" rx="10" fill="#21182F"/><circle cx="50" cy="257" r="10" fill="#8D72FF"/><text x="74" y="263" fill="#CFC1E1">Type layer</text><rect x="22" y="298" width="188" height="58" rx="10" fill="#21182F"/><circle cx="50" cy="327" r="10" fill="#57D8FF"/><text x="74" y="333" fill="#CFC1E1">Frame</text></g>
  <rect x="276" y="126" width="714" height="530" rx="18" fill="#0B0811" stroke="#55426D"/><rect x="336" y="170" width="594" height="442" rx="14" fill="url(#art)"/><circle cx="476" cy="322" r="118" fill="#FFD9E9" fill-opacity=".6"/><circle cx="740" cy="438" r="158" fill="#332060" fill-opacity=".45"/><path d="M386 495C493 378 565 560 675 385s173 31 211-105" fill="none" stroke="#FFF" stroke-opacity=".7" stroke-width="13" stroke-linecap="round"/><text x="396" y="252" fill="#231530" font-family="Arial" font-size="30" font-weight="700">MAKE SOMETHING</text><text x="396" y="286" fill="#231530" font-family="Arial" font-size="30" font-weight="700">WORTH SHARING.</text>
  <rect x="1032" y="126" width="210" height="530" rx="14" fill="#151020"/><text x="1058" y="166" fill="#9D8CB4" font-family="Arial" font-size="15">PROPERTIES</text><g fill="#2A2038"><rect x="1054" y="192" width="166" height="48" rx="8"/><rect x="1054" y="254" width="166" height="48" rx="8"/><rect x="1054" y="316" width="166" height="48" rx="8"/><rect x="1054" y="394" width="78" height="78" rx="10"/><rect x="1142" y="394" width="78" height="78" rx="10"/></g><g fill="#786A8A" font-family="Arial" font-size="14"><text x="1070" y="221">1280 × 720</text><text x="1070" y="283">Rounded frame</text><text x="1070" y="345">Display / RGB</text></g>
</svg>
